<?xml version="1.0" encoding="UTF-8" standalone="no"?>
<svg
   xmlns:dc="http://purl.org/dc/elements/1.1/"
   xmlns:cc="http://creativecommons.org/ns#"
   xmlns:rdf="http://www.w3.org/1999/02/22-rdf-syntax-ns#"
   xmlns:svg="http://www.w3.org/2000/svg"
   xmlns="http://www.w3.org/2000/svg"
   xmlns:sodipodi="http://sodipodi.sourceforge.net/DTD/sodipodi-0.dtd"
   xmlns:inkscape="http://www.inkscape.org/namespaces/inkscape"
   version="1.1"
   id="Layer_1"
   x="0px"
   y="0px"
   viewBox="0 0 512 512"
   style="enable-background:new 0 0 512 512;"
   xml:space="preserve"
   sodipodi:docname="bath-tub.svg"
   inkscape:version="1.0.2-2 (e86c870879, 2021-01-15)"><metadata
   id="metadata43"><rdf:RDF><cc:Work
       rdf:about=""><dc:format>image/svg+xml</dc:format><dc:type
         rdf:resource="http://purl.org/dc/dcmitype/StillImage" /></cc:Work></rdf:RDF></metadata><defs
   id="defs41" /><sodipodi:namedview
   pagecolor="#ffffff"
   bordercolor="#666666"
   borderopacity="1"
   objecttolerance="10"
   gridtolerance="10"
   guidetolerance="10"
   inkscape:pageopacity="0"
   inkscape:pageshadow="2"
   inkscape:window-width="1920"
   inkscape:window-height="1001"
   id="namedview39"
   showgrid="false"
   inkscape:zoom="1.65625"
   inkscape:cx="256"
   inkscape:cy="256"
   inkscape:window-x="-9"
   inkscape:window-y="-9"
   inkscape:window-maximized="1"
   inkscape:current-layer="Layer_1"
   inkscape:document-rotation="0" />
<g
   id="g6"
   style="fill:#ff0000">
	<g
   id="g4"
   style="fill:#ff0000">
		<path
   d="M480,234.679H53.333V54.839c0-12.16,11.307-22.827,24.213-22.827h44.587c12.587,0,22.72,10.24,22.827,22.72    c-20.8,5.227-38.293,24.427-38.293,44.693v28.587c0,5.867,4.8,10.667,10.667,10.667H192c5.867,0,10.667-4.8,10.667-10.667V99.426    c0-20.587-16.32-39.467-36.373-44.587c0-24.32-19.733-44.16-44.16-44.16H77.547C52.907,10.679,32,30.946,32,54.839v179.84    c-17.6-0.107-31.893,14.187-32,31.787c0,9.173,3.84,17.813,10.667,23.893v55.893c0,43.413,19.307,80.64,50.56,104.853    l-17.493,34.773c-2.667,5.227-0.533,11.627,4.8,14.293c5.227,2.667,11.627,0.533,14.293-4.8l16.427-32.747    c21.547,11.52,45.653,17.493,70.08,17.28h213.333c24.427,0.213,48.533-5.76,70.08-17.28l16.427,32.747    c2.667,5.227,9.067,7.36,14.293,4.8c5.227-2.56,7.36-9.067,4.8-14.293l-17.493-34.88c31.253-24.107,50.56-61.44,50.56-104.853    v-55.893c6.72-5.867,10.667-14.507,10.667-23.573C512,248.973,497.707,234.679,480,234.679z M155.627,74.679    c12.693,0,25.707,12.48,25.707,24.747v17.92H128v-17.92C128,87.586,142.4,74.679,155.627,74.679z M480,346.253    c0,64.107-50.453,112.427-117.333,112.427H149.333C82.453,458.679,32,410.359,32,346.253v-47.573h448V346.253z M480,277.346H32.32    c-5.333,0-10.133-3.84-10.88-9.067c-0.96-6.613,4.16-12.267,10.56-12.267h447.68c5.333,0,10.133,3.84,10.88,9.067    C491.52,271.693,486.4,277.346,480,277.346z"
   id="path2"
   style="fill:#ff0000" />
	</g>
</g>
<g
   id="g8">
</g>
<g
   id="g10">
</g>
<g
   id="g12">
</g>
<g
   id="g14">
</g>
<g
   id="g16">
</g>
<g
   id="g18">
</g>
<g
   id="g20">
</g>
<g
   id="g22">
</g>
<g
   id="g24">
</g>
<g
   id="g26">
</g>
<g
   id="g28">
</g>
<g
   id="g30">
</g>
<g
   id="g32">
</g>
<g
   id="g34">
</g>
<g
   id="g36">
</g>
</svg>
