<?xml version="1.0" encoding="UTF-8" standalone="no"?>
<svg
   xmlns:dc="http://purl.org/dc/elements/1.1/"
   xmlns:cc="http://creativecommons.org/ns#"
   xmlns:rdf="http://www.w3.org/1999/02/22-rdf-syntax-ns#"
   xmlns:svg="http://www.w3.org/2000/svg"
   xmlns="http://www.w3.org/2000/svg"
   xmlns:sodipodi="http://sodipodi.sourceforge.net/DTD/sodipodi-0.dtd"
   xmlns:inkscape="http://www.inkscape.org/namespaces/inkscape"
   width="512"
   height="512"
   viewBox="0 0 512 512"
   version="1.1"
   id="svg4"
   sodipodi:docname="bed.svg"
   inkscape:version="1.0.2-2 (e86c870879, 2021-01-15)">
  <metadata
     id="metadata10">
    <rdf:RDF>
      <cc:Work
         rdf:about="">
        <dc:format>image/svg+xml</dc:format>
        <dc:type
           rdf:resource="http://purl.org/dc/dcmitype/StillImage" />
      </cc:Work>
    </rdf:RDF>
  </metadata>
  <defs
     id="defs8" />
  <sodipodi:namedview
     pagecolor="#ffffff"
     bordercolor="#666666"
     borderopacity="1"
     objecttolerance="10"
     gridtolerance="10"
     guidetolerance="10"
     inkscape:pageopacity="0"
     inkscape:pageshadow="2"
     inkscape:window-width="1920"
     inkscape:window-height="1001"
     id="namedview6"
     showgrid="false"
     inkscape:zoom="1.65625"
     inkscape:cx="256"
     inkscape:cy="256"
     inkscape:window-x="-9"
     inkscape:window-y="-9"
     inkscape:window-maximized="1"
     inkscape:current-layer="svg4"
     inkscape:document-rotation="0" />
  <path
     d="M496,344h-8V280a32.042,32.042,0,0,0-32-32V112a32.042,32.042,0,0,0-32-32H88a32.042,32.042,0,0,0-32,32V248a32.042,32.042,0,0,0-32,32v64H16a8,8,0,0,0-8,8v32a8,8,0,0,0,8,8h8v32a8,8,0,0,0,8,8H56a7.99,7.99,0,0,0,7.84-6.43L70.56,392H441.44l6.72,33.57A7.99,7.99,0,0,0,456,432h24a8,8,0,0,0,8-8V392h8a8,8,0,0,0,8-8V352A8,8,0,0,0,496,344ZM72,112A16.021,16.021,0,0,1,88,96H424a16.021,16.021,0,0,1,16,16V248H424V216a32.042,32.042,0,0,0-32-32H296a32.042,32.042,0,0,0-32,32v32H248V216a32.042,32.042,0,0,0-32-32H120a32.042,32.042,0,0,0-32,32v32H72ZM408,216v32H280V216a16.021,16.021,0,0,1,16-16h96A16.021,16.021,0,0,1,408,216Zm-176,0v32H104V216a16.021,16.021,0,0,1,16-16h96A16.021,16.021,0,0,1,232,216ZM40,280a16.021,16.021,0,0,1,16-16H456a16.021,16.021,0,0,1,16,16v64H40Zm9.44,136H40V392H54.24ZM472,416h-9.44l-4.8-24H472Zm16-40H24V360H488Z"
     id="path2"
     style="fill:#ff0000" />
</svg>
