<?xml version="1.0" encoding="UTF-8" standalone="no"?>
<svg
   xmlns:dc="http://purl.org/dc/elements/1.1/"
   xmlns:cc="http://creativecommons.org/ns#"
   xmlns:rdf="http://www.w3.org/1999/02/22-rdf-syntax-ns#"
   xmlns:svg="http://www.w3.org/2000/svg"
   xmlns="http://www.w3.org/2000/svg"
   xmlns:sodipodi="http://sodipodi.sourceforge.net/DTD/sodipodi-0.dtd"
   xmlns:inkscape="http://www.inkscape.org/namespaces/inkscape"
   id="Capa_1"
   enable-background="new 0 0 512 512"
   height="512"
   viewBox="0 0 512 512"
   width="512"
   version="1.1"
   sodipodi:docname="cutlery.svg"
   inkscape:version="1.0.2-2 (e86c870879, 2021-01-15)">
  <metadata
     id="metadata21">
    <rdf:RDF>
      <cc:Work
         rdf:about="">
        <dc:format>image/svg+xml</dc:format>
        <dc:type
           rdf:resource="http://purl.org/dc/dcmitype/StillImage" />
      </cc:Work>
    </rdf:RDF>
  </metadata>
  <defs
     id="defs19" />
  <sodipodi:namedview
     pagecolor="#ffffff"
     bordercolor="#666666"
     borderopacity="1"
     objecttolerance="10"
     gridtolerance="10"
     guidetolerance="10"
     inkscape:pageopacity="0"
     inkscape:pageshadow="2"
     inkscape:window-width="1920"
     inkscape:window-height="1001"
     id="namedview17"
     showgrid="false"
     inkscape:zoom="0.5855728"
     inkscape:cx="250.90478"
     inkscape:cy="293.92047"
     inkscape:window-x="-9"
     inkscape:window-y="-9"
     inkscape:window-maximized="1"
     inkscape:current-layer="Capa_1"
     inkscape:document-rotation="0" />
  <g
     id="g14"
     style="fill:#ff0000">
    <path
       d="m440.46 2.387c-2.1-1.389-4.755-1.632-7.071-.648-1.056.449-26.154 11.425-51.732 49.53-14.729 21.942-26.725 48.557-35.657 79.104-11.073 37.87-17.457 81.983-18.974 131.113-.431 13.901 8.547 25.825 21.108 29.779v172.892c0 26.381 21.463 47.843 47.844 47.843s47.843-21.462 47.843-47.843v-179-276.515c0-2.517-1.262-4.867-3.361-6.255zm-98.441 259.563c1.825-59.092 12.201-141.947 51.273-201.091 13.454-20.365 26.731-32.337 35.529-38.809v255.605c-58.237-.012-69.24.018-71.685-.003-8.599-.052-15.38-7.186-15.117-15.702zm86.802 202.207c0 18.11-14.733 32.843-32.843 32.843s-32.844-14.733-32.844-32.843v-171.5h65.687z"
       id="path2"
       style="fill:#ff0000" />
    <circle
       cx="395.978"
       cy="433.592"
       r="9.886"
       id="circle4"
       style="fill:#ff0000" />
    <path
       d="m395.978 365.951c5.46 0 9.886-4.426 9.886-9.886 0-5.459-4.426-9.886-9.886-9.886s-9.886 4.426-9.886 9.886 4.426 9.886 9.886 9.886z"
       id="path6"
       style="fill:#ff0000" />
    <path
       d="m159.709 423.706c-5.459 0-9.886 4.426-9.886 9.886s4.426 9.886 9.886 9.886 9.886-4.426 9.886-9.886-4.426-9.886-9.886-9.886z"
       id="path8"
       style="fill:#ff0000" />
    <path
       d="m159.709 346.179c-5.459 0-9.886 4.426-9.886 9.886s4.426 9.886 9.886 9.886 9.886-4.426 9.886-9.886-4.426-9.886-9.886-9.886z"
       id="path10"
       style="fill:#ff0000" />
    <path
       d="m226.662.004c-14.16-.266-25.529 11.594-25.529 25.502v69.449c0 4.546-3.49 8.409-7.779 8.611-4.786.224-8.591-3.588-8.591-8.175v-69.878c0-13.758-11.228-25.776-25.529-25.509-13.552.254-24.577 11.491-24.577 25.049v69.895c0 4.55-3.49 8.417-7.779 8.619-4.742.222-8.592-3.54-8.592-8.175v-69.879c0-13.779-11.25-25.776-25.528-25.509-13.554.254-24.579 11.491-24.579 25.049v86.023c0 33.721 20.204 63.679 51.474 76.321 4.572 1.849 7.527 6.123 7.527 10.888v80.644c-8.905 3.109-15.313 11.589-15.313 21.541v163.686c0 26.381 21.462 47.843 47.843 47.843s47.844-21.462 47.844-47.843v-163.685c0-9.953-6.409-18.432-15.314-21.542v-80.643c0-4.766 2.955-9.039 7.529-10.888 31.268-12.642 51.472-42.6 51.472-76.321v-86.024c-.002-13.558-11.027-24.795-24.579-25.049zm-34.109 464.153c0 18.11-14.733 32.843-32.844 32.843-18.109 0-32.843-14.733-32.843-32.843v-163.686c0-4.309 3.505-7.814 7.813-7.814h50.059c4.309 0 7.814 3.505 7.814 7.814v163.686zm43.686-353.08c0 27.577-16.523 52.076-42.094 62.415-10.271 4.152-16.907 13.885-16.907 24.795v79.371h-35.058v-79.371c0-10.911-6.636-20.643-16.905-24.795-25.572-10.339-42.096-34.838-42.096-62.415v-86.024c0-5.441 4.423-9.95 9.859-10.051 5.61-.106 10.247 4.847 10.247 10.511v69.878c0 12.863 10.689 23.799 24.297 23.159 12.378-.583 22.074-10.95 22.074-23.602v-69.895c0-5.441 4.423-9.95 9.858-10.051 5.664-.106 10.248 4.902 10.248 10.511v69.878c0 12.94 10.763 23.798 24.296 23.159 12.378-.583 22.074-10.947 22.074-23.594v-69.449c0-5.719 4.691-10.61 10.248-10.505 5.436.102 9.858 4.61 9.858 10.051v86.024z"
       id="path12"
       style="fill:#ff0000" />
  </g>
</svg>
