<?xml version="1.0" encoding="UTF-8" standalone="no"?>
<svg
   xmlns:dc="http://purl.org/dc/elements/1.1/"
   xmlns:cc="http://creativecommons.org/ns#"
   xmlns:rdf="http://www.w3.org/1999/02/22-rdf-syntax-ns#"
   xmlns:svg="http://www.w3.org/2000/svg"
   xmlns="http://www.w3.org/2000/svg"
   xmlns:sodipodi="http://sodipodi.sourceforge.net/DTD/sodipodi-0.dtd"
   xmlns:inkscape="http://www.inkscape.org/namespaces/inkscape"
   id="Capa_1"
   enable-background="new 0 0 512 512"
   height="512"
   viewBox="0 0 512 512"
   width="512"
   version="1.1"
   sodipodi:docname="sofa.svg"
   inkscape:version="1.0.2-2 (e86c870879, 2021-01-15)">
  <metadata
     id="metadata11">
    <rdf:RDF>
      <cc:Work
         rdf:about="">
        <dc:format>image/svg+xml</dc:format>
        <dc:type
           rdf:resource="http://purl.org/dc/dcmitype/StillImage" />
      </cc:Work>
    </rdf:RDF>
  </metadata>
  <defs
     id="defs9" />
  <sodipodi:namedview
     pagecolor="#ffffff"
     bordercolor="#666666"
     borderopacity="1"
     objecttolerance="10"
     gridtolerance="10"
     guidetolerance="10"
     inkscape:pageopacity="0"
     inkscape:pageshadow="2"
     inkscape:window-width="1920"
     inkscape:window-height="1001"
     id="namedview7"
     showgrid="false"
     inkscape:zoom="0.828125"
     inkscape:cx="308.63263"
     inkscape:cy="244.26244"
     inkscape:window-x="-9"
     inkscape:window-y="-9"
     inkscape:window-maximized="1"
     inkscape:current-layer="Capa_1"
     inkscape:document-rotation="0" />
  <g
     id="g4"
     style="fill:#ff0000">
    <path
       d="m511.408 259.955c-3.421-23.679-21.307-42.457-43.828-47.836l-4.959-98.564c-.314-7.36-6.331-13.126-13.698-13.126h-309.286c-4.107 0-7.688 3.164-7.811 7.269-.128 4.248 3.278 7.731 7.497 7.731h308.374l4.786 95.13h-19.818l-1.99-6.766c-.224-.762-.22-1.572.012-2.332l5.122-16.797c2.008-6.586.342-13.708-4.463-18.744-4.208-4.41-10.36-6.404-16.415-5.704l-3.686.426c-37.358 4.323-75.244 4.323-112.604 0l-4.133-.478c-6.842-.795-13.54 2.124-17.632 7.752-3.586 4.932-4.445 11.344-2.667 17.176l4.99 16.368c.232.76.236 1.572.012 2.334l-1.99 6.766h-27.59l-1.99-6.766c-.224-.762-.22-1.573.012-2.332l4.988-16.363c1.778-5.831.922-12.242-2.66-17.175-4.09-5.633-10.798-8.551-17.637-7.759l-4.133.478c-37.36 4.323-75.245 4.323-112.604 0l-3.683-.426c-6.055-.7-12.208 1.294-16.416 5.704-4.806 5.036-6.471 12.158-4.463 18.744l2.838 9.31c1.497 4.909 1.71 10.12.619 15.135l-.315 1.451h-27.373l4.786-95.13h37.407c4.107 0 7.688-3.164 7.811-7.269.128-4.247-3.278-7.731-7.496-7.731h-38.948c-7.369 0-13.385 5.767-13.695 13.069l-4.9 97.373c-25.896 2.68-47.4 22.879-51.186 49.085-.791 5.471-.79 11.018 0 16.487 4.069 28.161 28.594 49.397 57.048 49.397h9.095l-16.288 66.497c-1.061 4.333-.388 8.984 2.151 12.653 2.885 4.169 7.515 6.584 12.533 6.584h9.006c6.387 0 12.138-4.036 14.311-10.043l27.369-75.69h179.524c4.107 0 7.688-3.165 7.811-7.269.128-4.247-3.278-7.731-7.496-7.731h-238.016c-21.049 0-39.192-15.71-42.203-36.542-.584-4.047-.584-8.15.001-12.197 3.01-20.832 21.153-36.542 42.203-36.542h32.361c-.715 5.173.714 10.464 4.047 14.59 3.932 4.867 10.002 7.495 16.246 7.033l25.271-1.88c24.114-1.795 48.569-1.795 72.684 0 0 0 26.216 1.933 26.687 1.933 5.733 0 11.196-2.586 14.83-7.085 3.333-4.126 4.762-9.417 4.047-14.59h19.222c-.715 5.173.714 10.464 4.047 14.59 3.932 4.867 10.004 7.495 16.246 7.033l25.27-1.88c24.114-1.795 48.569-1.795 72.684 0 0 0 26.216 1.933 26.686 1.933 5.733 0 11.197-2.586 14.831-7.085 3.333-4.126 4.762-9.417 4.047-14.59h17.511c21.049 0 39.192 15.71 42.203 36.544.585 4.046.585 8.149 0 12.196-3.01 20.832-21.153 36.543-42.203 36.543h-128.389c-4.107 0-7.688 3.164-7.811 7.269-.128 4.247 3.278 7.731 7.497 7.731h70.528l27.369 75.691c2.172 6.007 7.923 10.043 14.311 10.043h8.593c4.46 0 8.816-1.758 11.776-5.094 3.367-3.794 4.612-8.868 3.418-13.743l-16.386-66.896h9.095c28.454 0 52.979-21.236 57.048-49.397.79-5.479.79-11.026 0-16.496zm-437.065 136.474c-.031.086-.114.144-.205.144h-9.006c-.052 0-.106 0-.171-.084-.066-.083-.052-.135-.04-.186l17.26-70.464h17.687zm163.755-165.707c-.5.62-1.613 1.646-3.465 1.5 0 0-41.259-3.268-62.726-3.268-22.223 0-62.725 3.268-62.725 3.268-1.848.142-2.965-.88-3.465-1.5-.5-.619-1.261-1.923-.738-3.703l5.586-18.994c1.054-3.584 1.036-7.367-.054-10.94l-5.121-16.796c-.578-1.898.343-3.283.767-3.79.423-.507 1.625-1.663 3.591-1.435 0 0 76.985 7.835 120.185.478l4.133-.478h.001c1.97-.227 3.167.928 3.59 1.436.423.507 1.345 1.893.767 3.79l-5.121 16.795c-1.09 3.574-1.108 7.357-.054 10.94l5.586 18.995c.525 1.778-.237 3.083-.737 3.702zm183.035 0c-.501.62-1.622 1.641-3.465 1.5l-25.271-1.88c-24.853-1.85-50.057-1.85-74.91 0l-25.27 1.88c-1.85.142-2.965-.88-3.465-1.5-.5-.619-1.261-1.923-.738-3.703l5.586-18.994c1.054-3.584 1.036-7.367-.054-10.94l-5.121-16.796c-.578-1.898.343-3.283.767-3.79.386-.463 1.415-1.465 3.088-1.465.162 0 4.636.507 4.636.507 38.503 4.455 77.548 4.455 116.052 0l4.133-.478c1.971-.228 3.168.928 3.591 1.435.423.508 1.345 1.893.767 3.79l-5.121 16.796c-1.09 3.574-1.108 7.357-.054 10.94l3.597 12.229c.005.017.01.035.015.052l1.975 6.713c.523 1.78-.238 3.085-.738 3.704zm25.948 165.582c.012.051.025.103-.04.186-.065.084-.119.084-.171.084h-9.006c-.091 0-.174-.058-.205-.144l-25.524-70.59h17.687z"
       id="path2"
       style="fill:#ff0000" />
  </g>
</svg>
